<svg width="481" height="95" viewBox="0 0 481 95" fill="none" xmlns="http://www.w3.org/2000/svg">
<path d="M0.704 93V2.632H20.8V93H0.704ZM16.192 93V75.336H60.864V93H16.192ZM98.31 94.408C92.5927 94.408 87.5153 93.256 83.078 90.952C78.726 88.5627 75.3127 85.32 72.838 81.224C70.3633 77.0427 69.126 72.264 69.126 66.888V30.792H88.71V66.632C88.71 68.7653 89.0513 70.6 89.734 72.136C90.502 73.672 91.6113 74.8667 93.062 75.72C94.5127 76.5733 96.262 77 98.31 77C101.211 77 103.515 76.104 105.222 74.312C106.929 72.4347 107.782 69.8747 107.782 66.632V30.792H127.366V66.76C127.366 72.2213 126.129 77.0427 123.654 81.224C121.179 85.32 117.766 88.5627 113.414 90.952C109.062 93.256 104.027 94.408 98.31 94.408ZM169.742 94.408C163.342 94.408 157.539 93 152.334 90.184C147.129 87.368 143.033 83.4853 140.046 78.536C137.059 73.5867 135.566 68.04 135.566 61.896C135.566 55.6667 137.059 50.12 140.046 45.256C143.118 40.3067 147.257 36.424 152.462 33.608C157.667 30.792 163.513 29.384 169.998 29.384C174.862 29.384 179.299 30.2373 183.31 31.944C187.406 33.5653 191.033 36.04 194.19 39.368L181.646 51.912C180.195 50.2907 178.489 49.096 176.526 48.328C174.649 47.56 172.473 47.176 169.998 47.176C167.182 47.176 164.665 47.816 162.446 49.096C160.313 50.2907 158.606 51.9973 157.326 54.216C156.131 56.3493 155.534 58.8667 155.534 61.768C155.534 64.6693 156.131 67.2293 157.326 69.448C158.606 71.6667 160.355 73.416 162.574 74.696C164.793 75.976 167.267 76.616 169.998 76.616C172.558 76.616 174.819 76.1893 176.782 75.336C178.83 74.3973 180.579 73.1173 182.03 71.496L194.446 84.04C191.203 87.4533 187.534 90.056 183.438 91.848C179.342 93.5547 174.777 94.408 169.742 94.408ZM203.162 93V30.792H222.746V93H203.162ZM213.018 22.216C209.946 22.216 207.386 21.192 205.338 19.144C203.375 17.0107 202.394 14.4507 202.394 11.464C202.394 8.392 203.375 5.832 205.338 3.784C207.386 1.736 209.946 0.711998 213.018 0.711998C216.09 0.711998 218.607 1.736 220.57 3.784C222.533 5.832 223.514 8.392 223.514 11.464C223.514 14.4507 222.533 17.0107 220.57 19.144C218.607 21.192 216.09 22.216 213.018 22.216ZM263.033 94.28C257.145 94.28 251.897 92.872 247.289 90.056C242.766 87.24 239.182 83.4 236.537 78.536C233.977 73.672 232.697 68.1253 232.697 61.896C232.697 55.6667 233.977 50.12 236.537 45.256C239.182 40.392 242.766 36.552 247.289 33.736C251.897 30.92 257.145 29.512 263.033 29.512C267.3 29.512 271.14 30.3227 274.553 31.944C278.052 33.5653 280.91 35.8267 283.129 38.728C285.433 41.544 286.713 44.7867 286.969 48.456V74.696C286.713 78.3653 285.476 81.6933 283.257 84.68C281.038 87.5813 278.18 89.928 274.681 91.72C271.182 93.4267 267.3 94.28 263.033 94.28ZM266.489 76.616C269.305 76.616 271.737 76.0187 273.785 74.824C275.833 73.544 277.454 71.7947 278.649 69.576C279.844 67.3573 280.441 64.7973 280.441 61.896C280.441 58.9947 279.844 56.4773 278.649 54.344C277.54 52.1253 275.918 50.376 273.785 49.096C271.737 47.816 269.348 47.176 266.617 47.176C263.886 47.176 261.454 47.816 259.321 49.096C257.273 50.376 255.609 52.1253 254.329 54.344C253.134 56.5627 252.537 59.08 252.537 61.896C252.537 64.712 253.134 67.2293 254.329 69.448C255.524 71.6667 257.188 73.416 259.321 74.696C261.454 75.976 263.844 76.616 266.489 76.616ZM298.873 93H279.673V76.232L282.617 61.128L279.289 46.024V0.0719986H298.873V93ZM340.31 94.408C334.593 94.408 329.515 93.256 325.078 90.952C320.726 88.5627 317.313 85.32 314.838 81.224C312.363 77.0427 311.126 72.264 311.126 66.888V30.792H330.71V66.632C330.71 68.7653 331.051 70.6 331.734 72.136C332.502 73.672 333.611 74.8667 335.062 75.72C336.513 76.5733 338.262 77 340.31 77C343.211 77 345.515 76.104 347.222 74.312C348.929 72.4347 349.782 69.8747 349.782 66.632V30.792H369.366V66.76C369.366 72.2213 368.129 77.0427 365.654 81.224C363.179 85.32 359.766 88.5627 355.414 90.952C351.062 93.256 346.027 94.408 340.31 94.408ZM381.662 93V30.792H401.246V93H381.662ZM421.47 93V56.648C421.47 53.4907 420.489 51.0587 418.526 49.352C416.649 47.56 414.302 46.664 411.486 46.664C409.523 46.664 407.774 47.0907 406.238 47.944C404.702 48.712 403.465 49.8213 402.526 51.272C401.673 52.7227 401.246 54.5147 401.246 56.648L393.694 53.32C393.694 48.3707 394.761 44.1467 396.894 40.648C399.027 37.064 401.929 34.3333 405.598 32.456C409.267 30.4933 413.406 29.512 418.014 29.512C422.366 29.512 426.249 30.4933 429.662 32.456C433.161 34.4187 435.934 37.1493 437.982 40.648C440.03 44.1467 441.054 48.328 441.054 53.192V93H421.47ZM461.278 93V56.648C461.278 53.4907 460.297 51.0587 458.334 49.352C456.457 47.56 454.11 46.664 451.294 46.664C449.331 46.664 447.582 47.0907 446.046 47.944C444.51 48.712 443.273 49.8213 442.334 51.272C441.481 52.7227 441.054 54.5147 441.054 56.648L429.79 55.112C429.961 49.8213 431.198 45.2987 433.502 41.544C435.891 37.704 439.006 34.76 442.846 32.712C446.771 30.5787 451.166 29.512 456.03 29.512C460.809 29.512 465.033 30.536 468.702 32.584C472.457 34.5467 475.401 37.4053 477.534 41.16C479.753 44.8293 480.862 49.2667 480.862 54.472V93H461.278Z" fill="black"/>
</svg>
