<svg width="485" height="113" viewBox="0 0 485 113" fill="none" xmlns="http://www.w3.org/2000/svg">
<g filter="url(#filter0_d_1_4)">
<path d="M2.704 93V2.632H22.8V93H2.704ZM18.192 93V75.336H62.864V93H18.192ZM100.31 94.408C94.5927 94.408 89.5153 93.256 85.078 90.952C80.726 88.5627 77.3127 85.32 74.838 81.224C72.3633 77.0427 71.126 72.264 71.126 66.888V30.792H90.71V66.632C90.71 68.7653 91.0513 70.6 91.734 72.136C92.502 73.672 93.6113 74.8667 95.062 75.72C96.5127 76.5733 98.262 77 100.31 77C103.211 77 105.515 76.104 107.222 74.312C108.929 72.4347 109.782 69.8747 109.782 66.632V30.792H129.366V66.76C129.366 72.2213 128.129 77.0427 125.654 81.224C123.179 85.32 119.766 88.5627 115.414 90.952C111.062 93.256 106.027 94.408 100.31 94.408ZM171.742 94.408C165.342 94.408 159.539 93 154.334 90.184C149.129 87.368 145.033 83.4853 142.046 78.536C139.059 73.5867 137.566 68.04 137.566 61.896C137.566 55.6667 139.059 50.12 142.046 45.256C145.118 40.3067 149.257 36.424 154.462 33.608C159.667 30.792 165.513 29.384 171.998 29.384C176.862 29.384 181.299 30.2373 185.31 31.944C189.406 33.5653 193.033 36.04 196.19 39.368L183.646 51.912C182.195 50.2907 180.489 49.096 178.526 48.328C176.649 47.56 174.473 47.176 171.998 47.176C169.182 47.176 166.665 47.816 164.446 49.096C162.313 50.2907 160.606 51.9973 159.326 54.216C158.131 56.3493 157.534 58.8667 157.534 61.768C157.534 64.6693 158.131 67.2293 159.326 69.448C160.606 71.6667 162.355 73.416 164.574 74.696C166.793 75.976 169.267 76.616 171.998 76.616C174.558 76.616 176.819 76.1893 178.782 75.336C180.83 74.3973 182.579 73.1173 184.03 71.496L196.446 84.04C193.203 87.4533 189.534 90.056 185.438 91.848C181.342 93.5547 176.777 94.408 171.742 94.408ZM205.162 93V30.792H224.746V93H205.162ZM215.018 22.216C211.946 22.216 209.386 21.192 207.338 19.144C205.375 17.0107 204.394 14.4507 204.394 11.464C204.394 8.392 205.375 5.832 207.338 3.784C209.386 1.736 211.946 0.711998 215.018 0.711998C218.09 0.711998 220.607 1.736 222.57 3.784C224.533 5.832 225.514 8.392 225.514 11.464C225.514 14.4507 224.533 17.0107 222.57 19.144C220.607 21.192 218.09 22.216 215.018 22.216ZM265.033 94.28C259.145 94.28 253.897 92.872 249.289 90.056C244.766 87.24 241.182 83.4 238.537 78.536C235.977 73.672 234.697 68.1253 234.697 61.896C234.697 55.6667 235.977 50.12 238.537 45.256C241.182 40.392 244.766 36.552 249.289 33.736C253.897 30.92 259.145 29.512 265.033 29.512C269.3 29.512 273.14 30.3227 276.553 31.944C280.052 33.5653 282.91 35.8267 285.129 38.728C287.433 41.544 288.713 44.7867 288.969 48.456V74.696C288.713 78.3653 287.476 81.6933 285.257 84.68C283.038 87.5813 280.18 89.928 276.681 91.72C273.182 93.4267 269.3 94.28 265.033 94.28ZM268.489 76.616C271.305 76.616 273.737 76.0187 275.785 74.824C277.833 73.544 279.454 71.7947 280.649 69.576C281.844 67.3573 282.441 64.7973 282.441 61.896C282.441 58.9947 281.844 56.4773 280.649 54.344C279.54 52.1253 277.918 50.376 275.785 49.096C273.737 47.816 271.348 47.176 268.617 47.176C265.886 47.176 263.454 47.816 261.321 49.096C259.273 50.376 257.609 52.1253 256.329 54.344C255.134 56.5627 254.537 59.08 254.537 61.896C254.537 64.712 255.134 67.2293 256.329 69.448C257.524 71.6667 259.188 73.416 261.321 74.696C263.454 75.976 265.844 76.616 268.489 76.616ZM300.873 93H281.673V76.232L284.617 61.128L281.289 46.024V0.0719986H300.873V93ZM342.31 94.408C336.593 94.408 331.515 93.256 327.078 90.952C322.726 88.5627 319.313 85.32 316.838 81.224C314.363 77.0427 313.126 72.264 313.126 66.888V30.792H332.71V66.632C332.71 68.7653 333.051 70.6 333.734 72.136C334.502 73.672 335.611 74.8667 337.062 75.72C338.513 76.5733 340.262 77 342.31 77C345.211 77 347.515 76.104 349.222 74.312C350.929 72.4347 351.782 69.8747 351.782 66.632V30.792H371.366V66.76C371.366 72.2213 370.129 77.0427 367.654 81.224C365.179 85.32 361.766 88.5627 357.414 90.952C353.062 93.256 348.027 94.408 342.31 94.408ZM383.662 93V30.792H403.246V93H383.662ZM423.47 93V56.648C423.47 53.4907 422.489 51.0587 420.526 49.352C418.649 47.56 416.302 46.664 413.486 46.664C411.523 46.664 409.774 47.0907 408.238 47.944C406.702 48.712 405.465 49.8213 404.526 51.272C403.673 52.7227 403.246 54.5147 403.246 56.648L395.694 53.32C395.694 48.3707 396.761 44.1467 398.894 40.648C401.027 37.064 403.929 34.3333 407.598 32.456C411.267 30.4933 415.406 29.512 420.014 29.512C424.366 29.512 428.249 30.4933 431.662 32.456C435.161 34.4187 437.934 37.1493 439.982 40.648C442.03 44.1467 443.054 48.328 443.054 53.192V93H423.47ZM463.278 93V56.648C463.278 53.4907 462.297 51.0587 460.334 49.352C458.457 47.56 456.11 46.664 453.294 46.664C451.331 46.664 449.582 47.0907 448.046 47.944C446.51 48.712 445.273 49.8213 444.334 51.272C443.481 52.7227 443.054 54.5147 443.054 56.648L431.79 55.112C431.961 49.8213 433.198 45.2987 435.502 41.544C437.891 37.704 441.006 34.76 444.846 32.712C448.771 30.5787 453.166 29.512 458.03 29.512C462.809 29.512 467.033 30.536 470.702 32.584C474.457 34.5467 477.401 37.4053 479.534 41.16C481.753 44.8293 482.862 49.2667 482.862 54.472V93H463.278Z" fill="black"/>
</g>
<defs>
<filter id="filter0_d_1_4" x="0.704002" y="0.0719986" width="484.158" height="112.336" filterUnits="userSpaceOnUse" color-interpolation-filters="sRGB">
<feFlood flood-opacity="0" result="BackgroundImageFix"/>
<feColorMatrix in="SourceAlpha" type="matrix" values="0 0 0 0 0 0 0 0 0 0 0 0 0 0 0 0 0 0 127 0" result="hardAlpha"/>
<feOffset dy="16"/>
<feGaussianBlur stdDeviation="1"/>
<feComposite in2="hardAlpha" operator="out"/>
<feColorMatrix type="matrix" values="0 0 0 0 0 0 0 0 0 0 0 0 0 0 0 0 0 0 0.5 0"/>
<feBlend mode="normal" in2="BackgroundImageFix" result="effect1_dropShadow_1_4"/>
<feBlend mode="normal" in="SourceGraphic" in2="effect1_dropShadow_1_4" result="shape"/>
</filter>
</defs>
</svg>
