<svg width="717" height="522" viewBox="0 0 717 522" fill="none" xmlns="http://www.w3.org/2000/svg">
<g clip-path="url(#clip0_2_5)">
<rect width="717" height="522" fill="white"/>
<g filter="url(#filter0_d_2_5)">
<rect x="349.551" y="190.903" width="18.2945" height="220.886" fill="black" stroke="black"/>
<circle cx="358.698" cy="163.391" r="20.4417" stroke="black" stroke-width="17"/>
<rect x="407.434" y="195.727" width="18.2945" height="216.063" fill="black" stroke="black"/>
<path d="M484.295 38.9417C484.295 50.2314 475.143 59.3834 463.853 59.3834C452.563 59.3834 443.411 50.2314 443.411 38.9417C443.411 27.6521 452.563 18.5 463.853 18.5C475.143 18.5 484.295 27.6521 484.295 38.9417Z" stroke="black" stroke-width="17"/>
<rect x="454.706" y="65.4892" width="18.2945" height="105.12" fill="black" stroke="black"/>
<rect x="462.159" y="156.268" width="18.2945" height="67.0782" transform="rotate(54.3704 462.159 156.268)" fill="black" stroke="black"/>
<circle cx="529.454" cy="233.816" r="20.4417" stroke="black" stroke-width="17"/>
<rect x="483.612" y="411.79" width="18.2945" height="143.709" transform="rotate(-180 483.612 411.79)" fill="black" stroke="black"/>
<rect x="476.172" y="282.671" width="18.2945" height="45.005" transform="rotate(-125.63 476.172 282.671)" fill="black" stroke="black"/>
<circle cx="28.9417" cy="28.9417" r="20.4417" transform="matrix(-1 0 0 1 216.883 173.038)" stroke="black" stroke-width="17"/>
<rect x="0.5" y="-0.5" width="18.2945" height="175.544" transform="matrix(1 -8.74228e-08 -8.74228e-08 -1 233.284 411.29)" fill="black" stroke="black"/>
<rect x="-0.115128" y="-0.697671" width="18.2945" height="45.005" transform="matrix(0.582543 -0.8128 -0.8128 -0.582543 240.723 250.335)" fill="black" stroke="black"/>
<rect x="-0.5" y="0.5" width="18.2945" height="216.063" transform="matrix(-1 0 0 1 309.462 195.227)" fill="black" stroke="black"/>
<path d="M233.101 64.9893C233.101 76.2789 242.253 85.431 253.543 85.431C264.833 85.431 273.985 76.2789 273.985 64.9893C273.985 53.6996 264.833 44.5476 253.543 44.5476C242.253 44.5476 233.101 53.6996 233.101 64.9893Z" stroke="black" stroke-width="17"/>
<rect x="-0.5" y="0.5" width="18.2945" height="80.0368" transform="matrix(-1 0 0 1 262.19 90.0721)" fill="black" stroke="black"/>
<rect x="0.115128" y="0.697671" width="18.2945" height="67.0782" transform="matrix(-0.582543 0.8128 0.8128 0.582543 254.737 155.768)" fill="black" stroke="black"/>
</g>
<g filter="url(#filter1_d_2_5)">
<path d="M28.659 498.764H56.211V515H7.626V428.654H28.659V498.764ZM134.016 446.366V515H112.983V505.652C110.851 508.686 107.94 511.146 104.25 513.032C100.642 514.836 96.6242 515.738 92.1962 515.738C86.9482 515.738 82.3152 514.59 78.2972 512.294C74.2792 509.916 71.1632 506.513 68.9492 502.085C66.7352 497.657 65.6282 492.45 65.6282 486.464V446.366H86.5382V483.635C86.5382 488.227 87.7272 491.794 90.1052 494.336C92.4832 496.878 95.6812 498.149 99.6992 498.149C103.799 498.149 107.038 496.878 109.416 494.336C111.794 491.794 112.983 488.227 112.983 483.635V446.366H134.016ZM144.942 480.683C144.942 473.549 146.377 467.317 149.247 461.987C152.199 456.657 156.258 452.557 161.424 449.687C166.672 446.817 172.658 445.382 179.382 445.382C187.992 445.382 195.167 447.637 200.907 452.147C206.729 456.657 210.542 463.012 212.346 471.212H189.96C188.074 465.964 184.425 463.34 179.013 463.34C175.159 463.34 172.084 464.857 169.788 467.891C167.492 470.843 166.344 475.107 166.344 480.683C166.344 486.259 167.492 490.564 169.788 493.598C172.084 496.55 175.159 498.026 179.013 498.026C184.425 498.026 188.074 495.402 189.96 490.154H212.346C210.542 498.19 206.729 504.504 200.907 509.096C195.085 513.688 187.91 515.984 179.382 515.984C172.658 515.984 166.672 514.549 161.424 511.679C156.258 508.809 152.199 504.709 149.247 499.379C146.377 494.049 144.942 487.817 144.942 480.683ZM234.175 439.232C230.485 439.232 227.451 438.166 225.073 436.034C222.777 433.82 221.629 431.114 221.629 427.916C221.629 424.636 222.777 421.93 225.073 419.798C227.451 417.584 230.485 416.477 234.175 416.477C237.783 416.477 240.735 417.584 243.031 419.798C245.409 421.93 246.598 424.636 246.598 427.916C246.598 431.114 245.409 433.82 243.031 436.034C240.735 438.166 237.783 439.232 234.175 439.232ZM244.63 446.366V515H223.597V446.366H244.63ZM255.69 480.56C255.69 473.508 257.002 467.317 259.626 461.987C262.332 456.657 265.981 452.557 270.573 449.687C275.165 446.817 280.29 445.382 285.948 445.382C290.458 445.382 294.558 446.325 298.248 448.211C302.02 450.097 304.972 452.639 307.104 455.837V423.98H328.137V515H307.104V505.16C305.136 508.44 302.307 511.064 298.617 513.032C295.009 515 290.786 515.984 285.948 515.984C280.29 515.984 275.165 514.549 270.573 511.679C265.981 508.727 262.332 504.586 259.626 499.256C257.002 493.844 255.69 487.612 255.69 480.56ZM307.104 480.683C307.104 475.435 305.628 471.294 302.676 468.26C299.806 465.226 296.28 463.709 292.098 463.709C287.916 463.709 284.349 465.226 281.397 468.26C278.527 471.212 277.092 475.312 277.092 480.56C277.092 485.808 278.527 489.99 281.397 493.106C284.349 496.14 287.916 497.657 292.098 497.657C296.28 497.657 299.806 496.14 302.676 493.106C305.628 490.072 307.104 485.931 307.104 480.683ZM411.127 446.366V515H390.094V505.652C387.962 508.686 385.051 511.146 381.361 513.032C377.753 514.836 373.735 515.738 369.307 515.738C364.059 515.738 359.426 514.59 355.408 512.294C351.39 509.916 348.274 506.513 346.06 502.085C343.846 497.657 342.739 492.45 342.739 486.464V446.366H363.649V483.635C363.649 488.227 364.838 491.794 367.216 494.336C369.594 496.878 372.792 498.149 376.81 498.149C380.91 498.149 384.149 496.878 386.527 494.336C388.905 491.794 390.094 488.227 390.094 483.635V446.366H411.127ZM513.81 445.628C522.338 445.628 529.103 448.211 534.105 453.377C539.189 458.543 541.731 465.718 541.731 474.902V515H520.821V477.731C520.821 473.303 519.632 469.9 517.254 467.522C514.958 465.062 511.76 463.832 507.66 463.832C503.56 463.832 500.321 465.062 497.943 467.522C495.647 469.9 494.499 473.303 494.499 477.731V515H473.589V477.731C473.589 473.303 472.4 469.9 470.022 467.522C467.726 465.062 464.528 463.832 460.428 463.832C456.328 463.832 453.089 465.062 450.711 467.522C448.415 469.9 447.267 473.303 447.267 477.731V515H426.234V446.366H447.267V454.976C449.399 452.106 452.187 449.851 455.631 448.211C459.075 446.489 462.97 445.628 467.316 445.628C472.482 445.628 477.074 446.735 481.092 448.949C485.192 451.163 488.39 454.32 490.686 458.42C493.064 454.648 496.303 451.573 500.403 449.195C504.503 446.817 508.972 445.628 513.81 445.628ZM566.281 515.984C562.591 515.984 559.557 514.918 557.179 512.786C554.883 510.572 553.735 507.866 553.735 504.668C553.735 501.388 554.883 498.641 557.179 496.427C559.557 494.213 562.591 493.106 566.281 493.106C569.889 493.106 572.841 494.213 575.137 496.427C577.515 498.641 578.704 501.388 578.704 504.668C578.704 507.866 577.515 510.572 575.137 512.786C572.841 514.918 569.889 515.984 566.281 515.984ZM644.906 499.748H612.68L607.514 515H585.497L616.739 428.654H641.093L672.335 515H650.072L644.906 499.748ZM639.494 483.512L628.793 451.901L618.215 483.512H639.494ZM692.422 439.232C688.732 439.232 685.698 438.166 683.32 436.034C681.024 433.82 679.876 431.114 679.876 427.916C679.876 424.636 681.024 421.93 683.32 419.798C685.698 417.584 688.732 416.477 692.422 416.477C696.03 416.477 698.982 417.584 701.278 419.798C703.656 421.93 704.845 424.636 704.845 427.916C704.845 431.114 703.656 433.82 701.278 436.034C698.982 438.166 696.03 439.232 692.422 439.232ZM702.877 446.366V515H681.844V446.366H702.877Z" fill="black"/>
</g>
</g>
<defs>
<filter id="filter0_d_2_5" x="151" y="10" width="415.396" height="440.29" filterUnits="userSpaceOnUse" color-interpolation-filters="sRGB">
<feFlood flood-opacity="0" result="BackgroundImageFix"/>
<feColorMatrix in="SourceAlpha" type="matrix" values="0 0 0 0 0 0 0 0 0 0 0 0 0 0 0 0 0 0 127 0" result="hardAlpha"/>
<feOffset dy="30"/>
<feGaussianBlur stdDeviation="4"/>
<feComposite in2="hardAlpha" operator="out"/>
<feColorMatrix type="matrix" values="0 0 0 0 0 0 0 0 0 0 0 0 0 0 0 0 0 0 0.25 0"/>
<feBlend mode="normal" in2="BackgroundImageFix" result="effect1_dropShadow_2_5"/>
<feBlend mode="normal" in="SourceGraphic" in2="effect1_dropShadow_2_5" result="shape"/>
</filter>
<filter id="filter1_d_2_5" x="-0.374023" y="416.477" width="713.219" height="122.507" filterUnits="userSpaceOnUse" color-interpolation-filters="sRGB">
<feFlood flood-opacity="0" result="BackgroundImageFix"/>
<feColorMatrix in="SourceAlpha" type="matrix" values="0 0 0 0 0 0 0 0 0 0 0 0 0 0 0 0 0 0 127 0" result="hardAlpha"/>
<feOffset dy="15"/>
<feGaussianBlur stdDeviation="4"/>
<feComposite in2="hardAlpha" operator="out"/>
<feColorMatrix type="matrix" values="0 0 0 0 0 0 0 0 0 0 0 0 0 0 0 0 0 0 0.25 0"/>
<feBlend mode="normal" in2="BackgroundImageFix" result="effect1_dropShadow_2_5"/>
<feBlend mode="normal" in="SourceGraphic" in2="effect1_dropShadow_2_5" result="shape"/>
</filter>
<clipPath id="clip0_2_5">
<rect width="717" height="522" fill="white"/>
</clipPath>
</defs>
</svg>
